# xmcd CD database file
# Copyright (C) 1993-1998 Ti Kan
# 
# Track frame offsets:
#     150
#     17820
#     34847
#     45710
#     62578
#     83434
#     105147
#     129503
#     150988
#     165253
#     176055
# 
# Disc length: 2566 seconds
# 
# Revision: 1
# Processed by: cddbd v1.4b41PL1 Copyright (c) Steve Scherf et al.
# Submitted via: DiscPlay 4.0.4
# 
DISCID=720a040b
DTITLE=Lambchop - Thriller
DYEAR=1900
DGENRE=
TTITLE0=My Face Your Ass
TTITLE1=Your Fucking Sunny Day
TTITLE2=Hey, Where's Your Girl
TTITLE3=Crawl Away
TTITLE4=Gloria Leonard
TTITLE5=Thriller
TTITLE6=The Old Fat Robin
TTITLE7=Superstar In France
TTITLE8=Whitey
TTITLE9=Cigarettiquette
TTITLE10=Mr Crabby
EXTD=
EXTT0=
EXTT1=
EXTT2=
EXTT3=
EXTT4=
EXTT5=
EXTT6=
EXTT7=
EXTT8=
EXTT9=
EXTT10=
PLAYORDER=
